<svg id="圖層_1" data-name="圖層 1" xmlns="http://www.w3.org/2000/svg" viewBox="0 0 174.03 100.48"><defs><style>.cls-1{fill:#fff;}</style></defs><title>logo</title><path class="cls-1" d="M621.73,380.14c3.75-2.93,7.17-6.09,11-8.45a37.09,37.09,0,0,1,9.74-3.78c1.89-.51,4,0,6,0s3.92.39,5.87.36c4.67-.08,8.6,2.09,12.56,4.31,3.22,1.82,5.31,4.88,7.25,7.9,1.06,1.66,1.27,4.14,1.34,6.27A57.59,57.59,0,0,1,675,395a19.56,19.56,0,0,1-.89,3.94,2.19,2.19,0,0,0,.87,2.95,20.92,20.92,0,0,1,7.68,10.33c.89,2.76-.4,4.72-2.14,6.13-1.51,1.22-3.25,2.34-5.6,1-2.11-1.22-4.3-2.05-5.07-5.11-.91,1.26-1.58,2.17-2.23,3.1-1.16,1.62-2.21,3.35-3.47,4.87-2.21,2.67-4.26,5.61-6.9,7.7-2.42,1.91-5.23,3.88-8.71,2.86a3.88,3.88,0,0,0-1.72.09,16.53,16.53,0,0,1-10.39-.72c-2.65-1.14-5.81-.94-8.72-1.44a15.44,15.44,0,0,1-2.87-1,15.93,15.93,0,0,0-2.09-.91c-1.16-.25-1.87-.72-1.52-1.91-1.1.4-2.21.83-3.34,1.21s-1.46-.21-1.48-1.21c0-2.17,0-4.34-.05-6.51-.06-3-.13-6-.27-9-.21-4.53-.36-9.08-.78-13.6a87,87,0,0,0-1.51-8.75c-.1-.49-.6-.9-.93-1.33-.67-.91-1.61-1.67-1.18-3.1.09-.29-.33-.73-.45-1.12-.64-2-1.59-4-1.8-6.13a3.14,3.14,0,0,1,4.64-3.13,17.86,17.86,0,0,0,2.81,1c2.06.54,2.76,2.66,4.18,3.94A8.27,8.27,0,0,1,621.73,380.14Zm35.72,8.19a46.5,46.5,0,0,0,.47-6.74c-.1-1.69-4.24-4.42-6.1-4.32-2.55.15-5-.21-7.7.41a18.17,18.17,0,0,0-10.24,6.6c-1.89,2.32-3.88,3.63-6.78,2.45-1-.42-1.43,0-1.43,1.11,0,.5,0,1,0,1.49.31,6.2.77,12.39.88,18.59.07,3.65-.38,7.31-.67,11a8.77,8.77,0,0,1-3.78,6.72c1.16.06,1.72.08,2.27.12,4.08.28,7.66-1.9,11.53-2.73,2.1-.45,4-1.81,6.08-2.59a14.28,14.28,0,0,0,8.38-8.56c.8-2,1.66-3.94,2.64-5.82.85-1.66.71-2.19-1-2.71a10.4,10.4,0,0,1-1.24-.64c-.75-.34-1.52-.62-2.26-1-2.27-1.11-5-1.35-6.56-3.82-.32-.5-.86-1.23-1.27-1.21-2.12.09-2.56-1.83-3.5-3.11a3.09,3.09,0,0,1,1.55-4.57,15.13,15.13,0,0,1,2.78-.24c1.86-.09,3.72-.08,5.57-.26.66-.06,1.29-.8,1.92-.77C651.64,387.81,654.28,388.08,657.45,388.33Z" transform="translate(-508.88 -332.84)"/><path class="cls-1" d="M555.65,359.35c-.76-1.45-1.7-2.6-2-3.9-.51-2.47.91-3.71,3-3.95,2.94-.35,5.79-1.9,8.89-1,.31.09,1.3-.94,1.36-1.52.28-2.63.34-5.29.46-7.94,0-1.22,0-2.44.07-3.66a1.91,1.91,0,0,1,2.37-1.68c2.06.42,4.12.85,6.16,1.38s3,2.47,3.77,4.28c.55,1.34.94,1.81,2.26,1.26,2.83-1.16,5.47.47,6,3.64.09.55.57,1,.67,1.59a12,12,0,0,1,.36,3.25,2,2,0,0,1-1.66,1.76,26.52,26.52,0,0,0-6.48,2.62c-.85.53-1.23,2.24-1.43,3.48a70.59,70.59,0,0,0-1.08,9.69c0,1.9-.7,4.14,1.13,5.77.58.52,0,2,1.4,1.92,1.62-.1,3.43.15,4.78-.53a15.22,15.22,0,0,0,6-5.3c.68-1.05,2-1.66,2.92-2.54,2.44-2.25,4.83-4.55,7.28-6.79a4,4,0,0,1,1.28-.53,6.21,6.21,0,0,1,.23,1.57,23,23,0,0,1-.48,3.19,14.61,14.61,0,0,1-.73,1.69,6.88,6.88,0,0,0-.9,2.62,10.1,10.1,0,0,1-1.09,5.58,56.06,56.06,0,0,0-2.39,5.88c-1.12,2.92-3.6,3.45-6.17,3.88-2.17.37-4.31.86-6.48,1.2a9.09,9.09,0,0,1-3.2.09,21.12,21.12,0,0,1-10.48-5.11c-1.24-1.17-2.13-2.77-3.45-3.79-2.88-2.21-3.43-5.39-3.71-8.67a32.24,32.24,0,0,1,.23-5.09c0-.79-.13-1.12-1-1.42-1.8-.64-3.48-1.62-5.23-2.38a1.17,1.17,0,0,0-1.12.21,32.62,32.62,0,0,0-3.59,6c-1.13,3-2.82,5.67-3.9,8.68a48.16,48.16,0,0,1-3.38,6.38,3.56,3.56,0,0,0-.44.81c-.75,3.74-3.18,6.3-6,8.31s-5.58,4.16-9.45,3.56a16.5,16.5,0,0,1-6.41-2.48,12.2,12.2,0,0,1-3.56-2.85c-1.16-1.62-2.77-3.18-2.83-5.34a9.67,9.67,0,0,1,.95-4.07,34.7,34.7,0,0,1,2.71-4.32c.67-1,.4-1.83-.73-2.13a27.7,27.7,0,0,1-4.72-1.32c-2-.93-4.46-1-5.71-3.15a6.77,6.77,0,0,1-1.22-3.54c.19-2.29,1.15-2.94,3.46-3.3,2.06-.32,4.11-.8,6.18-1,2.48-.2,5,0,7.48-.26,4-.4,6.3,2.51,8.88,4.79,1.63,1.44,1.34,3.67,0,5.34a15.84,15.84,0,0,1-5.77,4.31,4,4,0,0,0-1.75,5.26,1.73,1.73,0,0,0,1.7.37c2.61-1.85,5.13-3.84,7.67-5.8,2.23-1.72,4.48-3.42,6.67-5.21,1.92-1.57,3.71-3.32,5.66-4.85s4.1-2.94,6.14-4.42A2.2,2.2,0,0,0,555.65,359.35Z" transform="translate(-508.88 -332.84)"/><path class="cls-1" d="M573.39,391.3a10.84,10.84,0,0,1,1.38-.61c1.62-.5,1.59-.23,2.11,1.36a11.52,11.52,0,0,0,2.38,3.72,6.43,6.43,0,0,1,1.57,4.21c0,.34-.29,1-.48,1-1.7.12-3.29,1.86-5.12.37-.15-.12-1.11.38-1.14.66a22.53,22.53,0,0,0-.06,3.39c.05,1.91.25,3.82.19,5.72-.09,3.07-.38,6.13-.52,9.2,0,.89.22,1.8.19,2.7s-.32,1.69-.43,2.55c-.06.51.06,1.05,0,1.56a4.06,4.06,0,0,1-.31,1.79c-1.39,2.1-3.08,3.57-5.82,3.06-2.5-.46-5.05-.6-7.54-1.09-2.25-.45-3-1.88-2.32-4.1,0-.15,0-.4.12-.44,2.41-1.24,1.85-3.89,2.32-5.87a59.65,59.65,0,0,0,1.1-9.66,29.73,29.73,0,0,0-.34-4.28c-1.81-.27-2.86,1.09-4.18,1.81a8.7,8.7,0,0,1-2.13.85,15,15,0,0,1-2.6.32,5.31,5.31,0,0,1-3.89-1.1c-2-1.65-4.11-3.18-6.26-4.62-.85-.56-2-.55-2.08-2s.55-2.32,2-2.41c3.28-.2,6.55-.39,9.82-.6.41,0,.94,0,1.18-.27,1.33-1.4,3.1-1.13,4.71-1.33,2.75-.33,3.74-1.79,3-4.53-.37-1.36-.45-2.8-.71-4.19a2.93,2.93,0,0,0-.49-1.28c-1.24-1.56-.92-3.46.87-4.23.94-.39,2-1.06,3,.09.09.11.37,0,.57.07,1.44.14,2.89.21,4.31.45a9.38,9.38,0,0,1,2.42.88,2.5,2.5,0,0,1,1.17,1.12C572.08,387.36,572.69,389.28,573.39,391.3Z" transform="translate(-508.88 -332.84)"/><path class="cls-1" d="M593.41,427.05c.07-.67.16-1.14.17-1.61.09-2.8,0-2.95-2.55-4.12a4.29,4.29,0,0,1-.5-.37c-2.92-2.07-5.8-4.2-8.77-6.18-1-.69-1.7-1.52-1-2.56a4.34,4.34,0,0,1,2.49-2,37.79,37.79,0,0,1,6.21-.17c1.21,0,2.42.2,3.63.3a10.16,10.16,0,0,1,1.92.17,4,4,0,0,1,2,.91,9.87,9.87,0,0,0,3.07,2.48,10.4,10.4,0,0,1,5,6.22,5.73,5.73,0,0,1-1.14,5.43c-.65.79-1.92,1-2.74,1.69a5.15,5.15,0,0,1-4,1.33,2,2,0,0,0-.89.18C594.4,429.51,593.44,428.89,593.41,427.05Z" transform="translate(-508.88 -332.84)"/><path class="cls-1" d="M524.41,422.06c2.81.2,5-1.51,7.44-2.5,2.71-1.09,5.39-2.27,8.06-3.47,1.26-.57,1.54.23,1.78,1.19a.69.69,0,0,1,0,.47c-1.43,2.23-.82,5.14-2.31,7.38s-2.65,4.46-4.07,6.62a3.76,3.76,0,0,1-4.15,1.43c-2.35-.6-4.75-1-7.06-1.77a5.56,5.56,0,0,1-2.76-1.91c-1.1-1.62-2.67-2.53-4.12-3.65-.34-.27-.81-.94-.71-1.14a2.62,2.62,0,0,1,1.3-1.36c1.32-.36,2.72-.43,4.08-.68C522.74,422.52,523.57,422.27,524.41,422.06Z" transform="translate(-508.88 -332.84)"/><path class="cls-1" d="M530.49,344.85c-2.41-.57-4.81-1.29-7.25-1.66-2.61-.4-4.84-2-7.55-2.17-1.53-.12-3.13-1.31-4.39-2.39a2.22,2.22,0,0,1,.09-3.17c.82-1,1.37-2,3-1.39a4.61,4.61,0,0,0,3.25-.41c3.34-1.66,6.25-.56,9.15,1.11,1.3.74,2.66,1.37,3.9,2.2a8.11,8.11,0,0,1,3.47,4.47c.41,1.4-1.66,3-3.61,3Z" transform="translate(-508.88 -332.84)"/></svg>